<?xml version="1.0" standalone="no"?>
<!DOCTYPE svg PUBLIC "-//W3C//DTD SVG 20010904//EN"
 "http://www.w3.org/TR/2001/REC-SVG-20010904/DTD/svg10.dtd">
<svg version="1.0" xmlns="http://www.w3.org/2000/svg"
 width="804.000000pt" height="804.000000pt" viewBox="0 0 804.000000 804.000000"
 preserveAspectRatio="xMidYMid meet">
<metadata>
Created by potrace 1.11, written by Peter Selinger 2001-2013
</metadata>
<g transform="translate(0.000000,804.000000) scale(0.100000,-0.100000)"
fill="#000000" stroke="none">
<path d="M3866 7942 c3 -53 8 -113 11 -132 9 -67 11 -761 2 -758 -38 13 -531
506 -668 668 l-21 25 -73 -76 c-130 -136 -244 -335 -316 -553 l-18 -56 26 -6
c363 -83 796 -211 887 -262 13 -7 5 -16 -42 -44 -144 -86 -330 -185 -576 -306
l-228 -112 20 -50 c53 -133 134 -254 247 -365 77 -76 226 -195 243 -195 5 0
17 12 27 28 138 218 358 539 494 720 l48 63 9 -38 c5 -21 15 -65 22 -98 6 -33
16 -81 22 -107 5 -25 11 -57 13 -70 1 -12 8 -52 14 -88 12 -73 15 -96 31 -225
6 -49 13 -104 15 -120 2 -17 7 -71 11 -120 9 -127 7 -120 45 -120 47 0 191 29
269 56 130 43 386 185 462 256 l27 26 -102 121 c-57 67 -140 166 -186 221 -46
55 -93 111 -105 125 -12 14 -50 61 -85 105 -36 44 -73 88 -83 98 -10 10 -18
21 -18 25 0 4 -14 22 -31 40 -17 18 -29 35 -27 37 2 2 33 0 68 -5 36 -6 88
-12 115 -15 28 -3 59 -8 70 -10 11 -2 43 -7 70 -10 45 -6 287 -46 360 -60 17
-4 95 -22 175 -40 79 -19 145 -33 146 -32 13 14 22 398 10 452 -2 11 -7 45
-11 75 -13 103 -66 294 -85 305 -5 3 -62 -15 -127 -40 -276 -107 -370 -140
-587 -206 -127 -37 -231 -67 -233 -65 -2 2 63 136 145 297 137 271 205 396
275 506 15 24 27 47 27 53 0 22 -190 99 -310 126 -146 33 -223 43 -368 49
l-113 5 7 -98z"/>
<path d="M4340 4983 c-123 -62 -506 -183 -660 -209 -14 -3 -55 -11 -92 -19
-36 -8 -83 -17 -103 -21 -21 -3 -47 -8 -59 -10 -35 -7 -67 -12 -151 -24 -44
-6 -93 -13 -110 -15 -43 -6 -160 -16 -235 -20 -36 -2 -68 -4 -72 -4 -12 -2
-68 -149 -82 -218 -19 -88 -31 -233 -20 -234 5 0 36 -2 69 -4 94 -5 208 -14
235 -20 14 -3 41 -8 60 -11 156 -27 298 -122 355 -238 30 -61 32 -68 56 -211
17 -103 18 -187 16 -1330 -2 -671 -5 -1229 -9 -1240 -3 -11 -8 -41 -12 -66
-18 -123 -36 -188 -78 -276 -56 -118 -164 -200 -318 -242 -78 -21 -190 -37
-276 -40 -29 -1 -31 -3 -47 -73 -9 -40 -19 -93 -22 -118 -3 -25 -7 -61 -10
-80 -3 -19 -7 -81 -10 -138 l-5 -102 102 5 c423 21 1628 27 2108 11 140 -5
289 -9 330 -10 l75 -1 -3 100 c-3 103 -9 185 -17 239 -14 92 -28 157 -34 160
-3 2 -35 7 -71 11 -208 21 -373 106 -445 229 -28 47 -70 157 -78 201 -12 62
-28 160 -34 200 -3 22 -7 803 -9 1735 -1 932 -5 1722 -8 1755 -16 164 -96 296
-213 352 l-38 18 -85 -42z"/>
</g>
</svg>
