<svg xmlns="http://www.w3.org/2000/svg" width="164" height="402" viewBox="0 0 164 402">
  <defs>
    <style>
      .cls-1 {
        fill: #aeaeae;
      }

      .cls-1, .cls-2 {
        fill-rule: evenodd;
      }

      .cls-2 {
        fill: #b9d47d;
      }
    </style>
  </defs>
  <path id="i" class="cls-1" d="M38.545,400.737q10.925-.275,22.933-0.533,12-.276,23.733-0.267,11.2,0,22.933.267t22.4,0.533q10.662,0.262,19.2.8,0-5.325-.533-12.8a60.113,60.113,0,0,0-2.134-12.8q-17.6-.525-24.8-10.133t-7.2-36.267v-155.2q0-10.662-3.733-16a20.3,20.3,0,0,0-9.067-7.467q-6.937,4.275-21.333,8.534a252.3,252.3,0,0,1-30.4,6.933A167.04,167.04,0,0,1,23.878,169a39.814,39.814,0,0,0-4,10.667,55.061,55.061,0,0,0-1.333,12.266q18.125,0,26.667,4.267,8.525,4.275,10.933,12.533,2.4,8.275,2.4,21.067v99.733q0,26.675-7.467,36.267t-28.8,10.133a71.566,71.566,0,0,0-2.4,12.267,116.442,116.442,0,0,0-.8,13.333Q27.6,401,38.545,400.737Z"/>
  <path id="_" data-name="*" class="cls-2" d="M94.865,1.974a92.963,92.963,0,0,0-21-1.833q1.328,13.336,1.5,25.167T75.2,49.807q-10.672-9.664-18.5-17.5t-16.167-17.5a56.767,56.767,0,0,0-12.5,15.667A88.96,88.96,0,0,0,20.2,49.141q14.328,3.336,24.833,6.167a182.854,182.854,0,0,1,21.833,7.5q-11,6.672-21.5,12T23.532,85.474a49.534,49.534,0,0,0,10,17.5,80.662,80.662,0,0,0,15.667,13.5q7.664-12,14.167-21.5t14.167-19.5q3,13.336,4.667,25.167t2.667,24.5a58.226,58.226,0,0,0,21.333-5.5,83.984,83.984,0,0,0,18.334-11.5q-9.336-11-16.667-19.834T92.2,69.141q14,1.672,25.167,3.5t25.5,5.5a111.789,111.789,0,0,0,.5-21.833,69.845,69.845,0,0,0-4.833-20.5q-9.336,3.672-16.667,6.5t-14.667,5L90.865,52.141q6-12.328,11.167-22.5T113.865,8.807A60.939,60.939,0,0,0,94.865,1.974Z"/>
</svg>
